<svg xmlns="http://www.w3.org/2000/svg" width="32" height="32" viewBox="0 0 32 32" version="1.1"><path d="M 10.453 11.125 C 7.938 13.749, 6.955 15.417, 7.750 15.708 C 8.494 15.981, 9 17.967, 9 20.615 C 9 23.771, 9.465 25.241, 10.601 25.677 C 12.570 26.433, 13.964 24.403, 13.985 20.750 C 13.996 18.672, 14.489 18, 16 18 C 17.511 18, 18.004 18.672, 18.015 20.750 C 18.036 24.403, 19.430 26.433, 21.399 25.677 C 22.535 25.241, 23 23.771, 23 20.615 C 23 17.967, 23.506 15.981, 24.250 15.708 C 25.875 15.112, 18.190 7, 16 7 C 15.123 7, 12.627 8.856, 10.453 11.125" stroke="none" fill="#ecf5fc" fill-rule="evenodd"/><path d="M 11.315 1.071 C 6.912 2.388, 2.255 7.339, 0.986 12.053 C -2.055 23.345, 8.655 34.055, 19.947 31.014 C 24.701 29.734, 29.885 24.826, 30.680 20.852 C 30.998 19.260, 31.650 17.716, 32.129 17.420 C 32.608 17.124, 33 15.982, 33 14.882 C 33 13.782, 32.550 13.160, 32 13.500 C 31.450 13.840, 31 13.373, 31 12.463 C 31 9.766, 27.719 4.997, 24.500 3.015 C 20.647 0.643, 15.355 -0.137, 11.315 1.071 M 10.453 11.125 C 7.938 13.749, 6.955 15.417, 7.750 15.708 C 8.494 15.981, 9 17.967, 9 20.615 C 9 23.771, 9.465 25.241, 10.601 25.677 C 12.570 26.433, 13.964 24.403, 13.985 20.750 C 13.996 18.672, 14.489 18, 16 18 C 17.511 18, 18.004 18.672, 18.015 20.750 C 18.036 24.403, 19.430 26.433, 21.399 25.677 C 22.535 25.241, 23 23.771, 23 20.615 C 23 17.967, 23.506 15.981, 24.250 15.708 C 25.875 15.112, 18.190 7, 16 7 C 15.123 7, 12.627 8.856, 10.453 11.125 M 0.158 16 C 0.158 17.375, 0.385 17.938, 0.662 17.250 C 0.940 16.563, 0.940 15.438, 0.662 14.750 C 0.385 14.063, 0.158 14.625, 0.158 16" stroke="none" fill="#359cfc" fill-rule="evenodd"/></svg>